<svg width="24" height="24" viewBox="0 0 24 24" fill="none" xmlns="http://www.w3.org/2000/svg">
<path d="M4.38981 10.9857C4.17386 10.9924 4.00159 11.2142 4.00159 11.4855L4.00159 12.5101C4.00159 12.7814 4.17385 13.0032 4.38981 13.0099L10.7882 13.2099L10.9882 19.612C10.9949 19.8279 11.2167 20.0002 11.488 20.0002H12.5126C12.7839 20.0002 13.0057 19.8279 13.0125 19.612L13.2125 13.2099L19.6109 13.0099C19.8269 13.0032 19.9992 12.7814 19.9992 12.5101L19.9992 11.4855C19.9992 11.2142 19.8269 10.9924 19.6109 10.9856L13.2125 10.7857L13.0125 4.38836C13.0058 4.17233 12.784 4 12.5127 4L11.4881 4C11.2168 4 10.995 4.17233 10.9883 4.38836L10.7883 10.7857L4.38981 10.9857Z" fill="white"/>
</svg>
